<svg width="37" height="35" viewBox="0 0 37 35" fill="none" xmlns="http://www.w3.org/2000/svg">
<path fill-rule="evenodd" clip-rule="evenodd" d="M29.644 0H7.64808V2.57936H0V14.678C0 19.3539 5.16309 23.2014 10.2296 23.6018C11.8929 25.4032 14.8183 26.7114 17.4221 27.2696V30.4318C14.9321 31.2046 10.4844 33.0211 10.2296 35H27.3176C27.06 33.0211 22.1595 31.2021 19.6646 30.4318V27.2696C22.2782 26.7114 25.3348 25.4032 27.0008 23.6018C32.0646 23.2014 37 19.3539 37 14.678V2.57936H29.644V0ZM2.34897 4.87097H7.46977V15.2934C7.46977 17.35 7.99447 19.3064 8.91771 21.0675C5.08627 19.8343 2.34897 16.6568 2.34897 12.9392V4.87097ZM22.4069 17.5825L18.5853 15.4535L14.7588 17.5825L15.4889 13.0794L12.3954 9.89207L16.6697 9.23411L18.5853 5.14118L20.4962 9.23411L24.7706 9.89207L21.6767 13.0794L22.4069 17.5825ZM28.0872 21.4004C29.0154 19.5589 29.5475 17.5225 29.5475 15.3685V4.93854H34.681V12.9092C34.681 16.7946 31.931 20.1118 28.0872 21.4004Z" fill="white"/>
</svg>
