<svg width="38" height="38" viewBox="0 0 38 38" fill="none" xmlns="http://www.w3.org/2000/svg">
<path d="M5.42864 25.7859V24.4287H2.71436V25.7859C2.71436 28.3054 3.71538 30.7219 5.49668 32.5035C7.27833 34.2848 9.69477 35.2858 12.2143 35.2858H16.2858V32.5716H12.2143C10.4146 32.5716 8.68867 31.8568 7.41622 30.584C6.1434 29.3115 5.42864 27.5856 5.42864 25.7859Z" fill="white"/>
<path d="M29.8573 12.2143V13.5715H32.5715V12.2143C32.5715 9.6948 31.5705 7.27844 29.7892 5.49682C28.0076 3.71524 25.5911 2.71436 23.0715 2.71436H19.0001V5.42864H23.0715C23.9626 5.42864 24.8449 5.60416 25.6682 5.94518C26.4915 6.28617 27.2396 6.786 27.8697 7.41611C28.4997 8.04622 28.9995 8.79428 29.3408 9.61757C29.6817 10.4408 29.8573 11.3232 29.8573 12.2143Z" fill="white"/>
<path d="M12.2143 12.2148H4.07142C2.9915 12.2148 1.95609 12.6438 1.19247 13.4073C0.428856 14.1709 0 15.2065 0 16.2863V19.0006H2.71428V16.2863C2.71428 15.9263 2.85724 15.5811 3.11165 15.3266C3.36643 15.0721 3.71133 14.9291 4.07142 14.9291H12.2143C12.5744 14.9291 12.9193 15.0721 13.174 15.3266C13.4285 15.5811 13.5714 15.9263 13.5714 16.2863V19.0006H16.2857V16.2863C16.2857 15.2065 15.8568 14.1709 15.0932 13.4073C14.3296 12.6438 13.2942 12.2148 12.2143 12.2148Z" fill="white"/>
<path d="M8.14292 10.8571C9.21669 10.8571 10.2662 10.5388 11.159 9.94228C12.0515 9.34576 12.7474 8.49792 13.1582 7.50602C13.5693 6.51407 13.6768 5.42257 13.4673 4.36954C13.2577 3.31647 12.7406 2.3492 11.9816 1.59C11.2224 0.830798 10.255 0.313782 9.20185 0.104312C8.14907 -0.105158 7.05757 0.00236325 6.06559 0.413233C5.07361 0.824103 4.22567 1.5199 3.62925 2.41265C3.03283 3.30536 2.71436 4.35492 2.71436 5.42858C2.71436 6.86834 3.28616 8.24911 4.3042 9.26715C5.32224 10.2852 6.70327 10.8571 8.14292 10.8571ZM8.14292 2.71429C8.67963 2.71429 9.20439 2.8735 9.65098 3.17174C10.0972 3.46999 10.445 3.89388 10.6506 4.38987C10.8561 4.88583 10.9097 5.43158 10.8051 5.95812C10.7005 6.48461 10.4417 6.96826 10.0621 7.34786C9.68246 7.72747 9.19896 7.98598 8.67239 8.09071C8.14582 8.19545 7.60006 8.1417 7.10425 7.93625C6.60808 7.7308 6.18429 7.38293 5.88609 6.93656C5.58788 6.49019 5.42864 5.96543 5.42864 5.42858C5.42864 4.70871 5.71454 4.01831 6.22374 3.50929C6.73258 3.00027 7.42309 2.71429 8.14292 2.71429Z" fill="white"/>
<path d="M33.9285 31.2148H25.7857C24.7057 31.2148 23.6703 31.6437 22.9067 32.4073C22.1431 33.1709 21.7142 34.2063 21.7142 35.2863V38.0006H24.4285V35.2863C24.4285 34.9262 24.5715 34.5813 24.8259 34.3265C25.0807 34.0721 25.4256 33.9291 25.7857 33.9291H33.9285C34.2886 33.9291 34.6335 34.0721 34.8883 34.3265C35.1427 34.5813 35.2856 34.9262 35.2856 35.2863V38.0006H37.9999V35.2863C37.9999 34.2063 37.5711 33.1709 36.8075 32.4073C36.0438 31.6437 35.0084 31.2148 33.9285 31.2148Z" fill="white"/>
<path d="M24.4286 24.4291C24.4286 25.5028 24.7471 26.5523 25.3435 27.4452C25.9399 28.3376 26.7878 29.0336 27.7798 29.4443C28.7718 29.8554 29.8633 29.9629 30.9161 29.7534C31.9692 29.5439 32.9366 29.0267 33.6959 28.2678C34.4548 27.5085 34.972 26.5411 35.1815 25.488C35.391 24.4352 35.2835 23.3437 34.8724 22.3517C34.4617 21.3597 33.7657 20.5118 32.8733 19.9154C31.9804 19.319 30.9309 19.0005 29.8572 19.0005C28.4175 19.0005 27.0365 19.5723 26.0184 20.5903C25.0004 21.6084 24.4286 22.9894 24.4286 24.4291ZM32.5714 24.4291C32.5714 24.9658 32.4122 25.4905 32.114 25.9371C31.8158 26.3833 31.392 26.7311 30.8958 26.9367C30.4 27.1423 29.8543 27.1958 29.3277 27.0912C28.8011 26.9866 28.3176 26.7279 27.938 26.3482C27.5583 25.9686 27.2996 25.4851 27.195 24.9585C27.0904 24.4319 27.144 23.8862 27.3495 23.3904C27.5551 22.8942 27.9029 22.4704 28.3491 22.1722C28.7957 21.874 29.3205 21.7148 29.8572 21.7148C30.577 21.7148 31.2675 22.0007 31.7763 22.5099C32.2855 23.0187 32.5714 23.7092 32.5714 24.4291Z" fill="white"/>
</svg>
