<svg width="34" height="35" viewBox="0 0 34 35" fill="none" xmlns="http://www.w3.org/2000/svg">
<path d="M5.64514 5.08064C5.64514 3.73317 6.12092 2.4409 6.96785 1.48809C7.81477 0.535282 8.9636 0 10.1611 0C11.3589 0 12.5078 0.535282 13.3547 1.48809C14.2016 2.4409 14.6774 3.73317 14.6774 5.08064C14.6774 6.42811 14.2016 7.72039 13.3547 8.6732C12.5078 9.62601 11.3589 10.1613 10.1611 10.1613C8.9636 10.1613 7.81477 9.62601 6.96785 8.6732C6.12092 7.72039 5.64514 6.42811 5.64514 5.08064Z" fill="white"/>
<path d="M21.142 9.08092L21.2487 9.16222C22.3266 9.96118 23.6767 10.3014 25.0043 10.1085C26.3323 9.91569 27.5297 9.20551 28.3356 8.13296C29.1419 7.06044 29.4908 5.71263 29.3069 4.38366C29.1227 3.05466 28.4206 1.85244 27.3533 1.03937C26.2861 0.226263 24.9406 -0.131727 23.6105 0.0435697C22.2804 0.218866 21.0733 0.913152 20.2532 1.97496C19.4331 3.03677 19.0664 4.37986 19.2329 5.71113C19.3993 7.04241 20.0857 8.2538 21.142 9.08092Z" fill="white"/>
<path d="M13.0072 12.5683C13.3266 12.0312 13.764 11.5569 14.2943 11.1737C14.8242 10.7905 15.4359 10.5062 16.0924 10.3379C16.7489 10.1697 17.4367 10.1208 18.1149 10.1944C18.7931 10.2678 19.4478 10.4622 20.0396 10.7658C20.6314 11.0694 21.1481 11.4759 21.5589 11.9611C21.97 12.4464 22.2666 13.0002 22.4309 13.5897C22.5956 14.1792 22.6247 14.7921 22.5166 15.3918C22.4085 15.9916 22.1653 16.5656 21.8018 17.08C21.1026 18.0691 19.9991 18.7791 18.7234 19.0605C17.4477 19.3419 16.0988 19.1727 14.9604 18.5885C13.822 18.0046 12.9823 17.0512 12.6181 15.9285C12.254 14.8059 12.3937 13.6014 13.0072 12.5683Z" fill="white"/>
<path d="M3.55475 12.4189H9.88255C9.62177 13.2535 9.47944 14.152 9.47944 15.0852C9.47944 17.1327 10.1646 19.0047 11.2903 20.4176H10.6646C9.44261 20.4176 8.25051 20.842 7.2515 21.6333C6.25249 22.4247 5.49536 23.5441 5.08328 24.8383C4.28799 24.4788 3.54313 23.9913 2.87226 23.3907C1.09025 21.7774 0 19.394 0 16.4184C0 15.3576 0.374586 14.3404 1.04114 13.5903C1.7077 12.8403 2.61214 12.4189 3.55475 12.4189Z" fill="white"/>
<path d="M23.2063 20.4176C25.7776 20.4176 27.9674 22.2601 28.785 24.8383C29.5909 24.4676 30.3374 23.9854 30.9986 23.3907C32.7806 21.7774 33.8709 19.394 33.8709 16.4184C33.8709 15.3576 33.4963 14.3404 32.8297 13.5903C32.1632 12.8403 31.2587 12.4189 30.3161 12.4189H23.9883C24.2491 13.2535 24.3915 14.152 24.3915 15.0852C24.3934 17.0532 23.7485 18.9525 22.5806 20.4176H23.2063Z" fill="white"/>
<path d="M26.8099 24.8858C26.9955 25.3229 27.0969 25.8049 27.0969 26.3063C27.0969 29.0785 25.9311 31.2992 24.018 32.8018C22.1356 34.2797 19.6104 34.9999 16.9356 34.9999C14.2607 34.9999 11.7356 34.2797 9.85317 32.8018C7.94262 31.2992 6.77431 29.0785 6.77431 26.3063C6.77288 25.8167 6.87033 25.3316 7.06131 24.8792C7.25265 24.4264 7.53326 24.0154 7.88714 23.669C8.24136 23.3227 8.6621 23.0483 9.1248 22.8616C9.58785 22.6748 10.084 22.5792 10.5847 22.5806H23.2864C24.0411 22.5806 24.7791 22.7993 25.4065 23.21C26.0335 23.6203 26.5221 24.2035 26.8099 24.8858Z" fill="white"/>
</svg>
