<svg width="44" height="38" viewBox="0 0 44 38" fill="none" xmlns="http://www.w3.org/2000/svg">
<path d="M26.8463 23.8466C23.4282 22.7753 24.4011 21.9225 27.6632 20.7054C29.2257 20.1215 28.2756 18.8902 28.3182 17.9051C28.3374 17.4542 30.1228 17.5441 29.9933 15.805C29.902 14.5802 27.1849 12.8351 26.4445 12.0904C26.0169 11.6608 27.3159 10.4849 26.4011 9.4509C25.1521 8.03757 24.9549 5.57851 24.1987 4.20318C24.1987 4.20318 24.775 3.32919 24.3334 2.83227C20.5241 -1.44934 6.30903 -1.05619 2.67598 5.24528C-1.4019 12.3192 -1.45636 22.0964 7.02291 27.3638C10.794 29.7058 5.96387 38 5.96387 38H20.9178C20.9178 36.5838 19.2501 31.5035 22.1689 31.7315C24.7051 31.9296 27.8112 31.8207 27.5359 28.9765C27.4528 28.1186 27.3549 27.3462 27.9584 26.6352C28.5618 25.9249 29.4354 24.6577 26.8463 23.8466Z" fill="white"/>
<path d="M30 22.4997L44 24V21L30 22.4997Z" fill="white"/>
<path d="M41.4839 34L43 31.1773L30 25L41.4839 34Z" fill="white"/>
<path d="M43 14.1368L41.4839 11L30 21L43 14.1368Z" fill="white"/>
</svg>
