<?xml version="1.0" standalone="no"?>
<svg xmlns:xlink="http://www.w3.org/1999/xlink" id="wave" style="transform:rotate(180deg); transition: 0.3s" viewBox="0 0 1440 100" version="1.1" xmlns="http://www.w3.org/2000/svg"><defs><linearGradient id="sw-gradient-0" x1="0" x2="0" y1="1" y2="0"><stop stop-color="rgba(239, 79, 1, 1)" offset="0%"/><stop stop-color="rgba(239, 79, 1, 1)" offset="100%"/></linearGradient></defs><path style="transform:translate(0, 0px); opacity:1" fill="url(#sw-gradient-0)" d="M0,70L26.7,65C53.3,60,107,50,160,51.7C213.3,53,267,67,320,70C373.3,73,427,67,480,65C533.3,63,587,67,640,58.3C693.3,50,747,30,800,25C853.3,20,907,30,960,41.7C1013.3,53,1067,67,1120,73.3C1173.3,80,1227,80,1280,66.7C1333.3,53,1387,27,1440,26.7C1493.3,27,1547,53,1600,58.3C1653.3,63,1707,47,1760,45C1813.3,43,1867,57,1920,61.7C1973.3,67,2027,63,2080,63.3C2133.3,63,2187,67,2240,68.3C2293.3,70,2347,70,2400,71.7C2453.3,73,2507,77,2560,68.3C2613.3,60,2667,40,2720,31.7C2773.3,23,2827,27,2880,35C2933.3,43,2987,57,3040,65C3093.3,73,3147,77,3200,66.7C3253.3,57,3307,33,3360,33.3C3413.3,33,3467,57,3520,61.7C3573.3,67,3627,53,3680,46.7C3733.3,40,3787,40,3813,40L3840,40L3840,100L3813.3,100C3786.7,100,3733,100,3680,100C3626.7,100,3573,100,3520,100C3466.7,100,3413,100,3360,100C3306.7,100,3253,100,3200,100C3146.7,100,3093,100,3040,100C2986.7,100,2933,100,2880,100C2826.7,100,2773,100,2720,100C2666.7,100,2613,100,2560,100C2506.7,100,2453,100,2400,100C2346.7,100,2293,100,2240,100C2186.7,100,2133,100,2080,100C2026.7,100,1973,100,1920,100C1866.7,100,1813,100,1760,100C1706.7,100,1653,100,1600,100C1546.7,100,1493,100,1440,100C1386.7,100,1333,100,1280,100C1226.7,100,1173,100,1120,100C1066.7,100,1013,100,960,100C906.7,100,853,100,800,100C746.7,100,693,100,640,100C586.7,100,533,100,480,100C426.7,100,373,100,320,100C266.7,100,213,100,160,100C106.7,100,53,100,27,100L0,100Z"/></svg>