<svg width="54" height="83" viewBox="0 0 54 83" fill="none" xmlns="http://www.w3.org/2000/svg">
  <path d="M8.93156 16.4249C11.3004 16.4249 13.5721 15.5596 15.2471 14.0195C16.9221 12.4794 17.8631 10.3905 17.8631 8.21249C17.8631 6.03442 16.9221 3.94557 15.2471 2.40545C13.5721 0.865326 11.3004 9.15527e-05 8.93156 9.15527e-05C6.56276 9.15527e-05 4.29099 0.865326 2.61599 2.40545C0.941002 3.94557 0 6.03442 0 8.21249C0 10.3905 0.941002 12.4794 2.61599 14.0195C4.29099 15.5596 6.56276 16.4249 8.93156 16.4249ZM44.6578 16.4249C47.0266 16.4249 49.2983 15.5596 50.9733 14.0195C52.6483 12.4794 53.5893 10.3905 53.5893 8.21249C53.5893 6.03442 52.6483 3.94557 50.9733 2.40545C49.2983 0.865326 47.0266 9.15527e-05 44.6578 9.15527e-05C42.289 9.15527e-05 40.0172 0.865326 38.3422 2.40545C36.6672 3.94557 35.7262 6.03442 35.7262 8.21249C35.7262 10.3905 36.6672 12.4794 38.3422 14.0195C40.0172 15.5596 42.289 16.4249 44.6578 16.4249ZM53.5893 41.0621C53.5893 43.2401 52.6483 45.329 50.9733 46.8691C49.2983 48.4092 47.0266 49.2745 44.6578 49.2745C42.289 49.2745 40.0172 48.4092 38.3422 46.8691C36.6672 45.329 35.7262 43.2401 35.7262 41.0621C35.7262 38.884 36.6672 36.7951 38.3422 35.255C40.0172 33.7149 42.289 32.8497 44.6578 32.8497C47.0266 32.8497 49.2983 33.7149 50.9733 35.255C52.6483 36.7951 53.5893 38.884 53.5893 41.0621ZM8.93156 49.2745C11.3004 49.2745 13.5721 48.4092 15.2471 46.8691C16.9221 45.329 17.8631 43.2401 17.8631 41.0621C17.8631 38.884 16.9221 36.7951 15.2471 35.255C13.5721 33.7149 11.3004 32.8497 8.93156 32.8497C6.56276 32.8497 4.29099 33.7149 2.61599 35.255C0.941002 36.7951 0 38.884 0 41.0621C0 43.2401 0.941002 45.329 2.61599 46.8691C4.29099 48.4092 6.56276 49.2745 8.93156 49.2745ZM53.5893 73.9116C53.5893 76.0897 52.6483 78.1785 50.9733 79.7187C49.2983 81.2588 47.0266 82.124 44.6578 82.124C42.289 82.124 40.0172 81.2588 38.3422 79.7187C36.6672 78.1785 35.7262 76.0897 35.7262 73.9116C35.7262 71.7336 36.6672 69.6447 38.3422 68.1046C40.0172 66.5645 42.289 65.6992 44.6578 65.6992C47.0266 65.6992 49.2983 66.5645 50.9733 68.1046C52.6483 69.6447 53.5893 71.7336 53.5893 73.9116ZM8.93156 82.124C11.3004 82.124 13.5721 81.2588 15.2471 79.7187C16.9221 78.1785 17.8631 76.0897 17.8631 73.9116C17.8631 71.7336 16.9221 69.6447 15.2471 68.1046C13.5721 66.5645 11.3004 65.6992 8.93156 65.6992C6.56276 65.6992 4.29099 66.5645 2.61599 68.1046C0.941002 69.6447 0 71.7336 0 73.9116C0 76.0897 0.941002 78.1785 2.61599 79.7187C4.29099 81.2588 6.56276 82.124 8.93156 82.124Z" fill="white" fill-opacity="0.3" />
</svg>