<svg width="274" height="274" viewBox="0 0 274 274" fill="none" xmlns="http://www.w3.org/2000/svg">
  <path d="M70.9612 145.724C67.2558 118.159 82.1751 89.8223 106.998 77.2778L94.0343 35.4847C46.2763 55.6932 18.8019 107.876 29.1682 158.687L70.9612 145.724Z" fill="white" fill-opacity="0.2" />
  <path d="M127.895 70.7959C159.044 66.6087 189.267 85.9133 198.883 116.913C209.607 151.487 190.212 188.324 155.639 199.048C124.639 208.664 91.6189 194.671 77.4431 166.62L35.6501 179.584C57.2696 230.672 114.523 257.616 168.603 240.841C226.214 222.971 258.547 161.561 240.676 103.95C223.901 49.8695 169.286 17.9151 114.931 29.0029L127.895 70.7959Z" fill="white" fill-opacity="0.2" />
</svg>