<svg id="wave" style="transform:rotate(0deg); transition: 0.3s" viewBox="0 0 1440 100" version="1.1" xmlns="http://www.w3.org/2000/svg">
  <defs>
    <linearGradient id="sw-gradient-0" x1="0" x2="0" y1="1" y2="0">
      <stop stop-color="rgba(239, 79, 1, 1)" offset="0%"></stop>
      <stop stop-color="rgba(239, 79, 1, 1)" offset="100%"></stop>
    </linearGradient>
  </defs>
  <path style="transform:translate(0, 0px); opacity:1" fill="url(#sw-gradient-0)" d="M0,20L34.3,30C68.6,40,137,60,206,66.7C274.3,73,343,67,411,68.3C480,70,549,80,617,73.3C685.7,67,754,43,823,30C891.4,17,960,13,1029,20C1097.1,27,1166,43,1234,56.7C1302.9,70,1371,80,1440,80C1508.6,80,1577,70,1646,65C1714.3,60,1783,60,1851,58.3C1920,57,1989,53,2057,50C2125.7,47,2194,43,2263,38.3C2331.4,33,2400,27,2469,21.7C2537.1,17,2606,13,2674,11.7C2742.9,10,2811,10,2880,15C2948.6,20,3017,30,3086,43.3C3154.3,57,3223,73,3291,68.3C3360,63,3429,37,3497,28.3C3565.7,20,3634,30,3703,33.3C3771.4,37,3840,33,3909,33.3C3977.1,33,4046,37,4114,41.7C4182.9,47,4251,53,4320,53.3C4388.6,53,4457,47,4526,50C4594.3,53,4663,67,4731,73.3C4800,80,4869,80,4903,80L4937.1,80L4937.1,100L4902.9,100C4868.6,100,4800,100,4731,100C4662.9,100,4594,100,4526,100C4457.1,100,4389,100,4320,100C4251.4,100,4183,100,4114,100C4045.7,100,3977,100,3909,100C3840,100,3771,100,3703,100C3634.3,100,3566,100,3497,100C3428.6,100,3360,100,3291,100C3222.9,100,3154,100,3086,100C3017.1,100,2949,100,2880,100C2811.4,100,2743,100,2674,100C2605.7,100,2537,100,2469,100C2400,100,2331,100,2263,100C2194.3,100,2126,100,2057,100C1988.6,100,1920,100,1851,100C1782.9,100,1714,100,1646,100C1577.1,100,1509,100,1440,100C1371.4,100,1303,100,1234,100C1165.7,100,1097,100,1029,100C960,100,891,100,823,100C754.3,100,686,100,617,100C548.6,100,480,100,411,100C342.9,100,274,100,206,100C137.1,100,69,100,34,100L0,100Z"></path>
</svg>