<svg width="39" height="56" viewBox="0 0 39 56" fill="none" xmlns="http://www.w3.org/2000/svg">
  <g>
    <path d="M6.36164 11.177C8.04885 11.177 9.66695 10.5882 10.86 9.54012C12.053 8.49208 12.7233 7.07063 12.7233 5.58848C12.7233 4.10632 12.053 2.68487 10.86 1.63683C9.66695 0.588784 8.04885 -9.53674e-07 6.36164 -9.53674e-07C4.67443 -9.53674e-07 3.05632 0.588784 1.86328 1.63683C0.670243 2.68487 0 4.10632 0 5.58848C0 7.07063 0.670243 8.49208 1.86328 9.54012C3.05632 10.5882 4.67443 11.177 6.36164 11.177ZM31.8082 11.177C33.4954 11.177 35.1135 10.5882 36.3065 9.54012C37.4996 8.49208 38.1698 7.07063 38.1698 5.58848C38.1698 4.10632 37.4996 2.68487 36.3065 1.63683C35.1135 0.588784 33.4954 -9.53674e-07 31.8082 -9.53674e-07C30.121 -9.53674e-07 28.5029 0.588784 27.3098 1.63683C26.1168 2.68487 25.4465 4.10632 25.4465 5.58848C25.4465 7.07063 26.1168 8.49208 27.3098 9.54012C28.5029 10.5882 30.121 11.177 31.8082 11.177ZM38.1698 27.9424C38.1698 29.4245 37.4996 30.846 36.3065 31.894C35.1135 32.9421 33.4954 33.5309 31.8082 33.5309C30.121 33.5309 28.5029 32.9421 27.3098 31.894C26.1168 30.846 25.4465 29.4245 25.4465 27.9424C25.4465 26.4602 26.1168 25.0388 27.3098 23.9907C28.5029 22.9427 30.121 22.3539 31.8082 22.3539C33.4954 22.3539 35.1135 22.9427 36.3065 23.9907C37.4996 25.0388 38.1698 26.4602 38.1698 27.9424V27.9424ZM6.36164 33.5309C8.04885 33.5309 9.66695 32.9421 10.86 31.894C12.053 30.846 12.7233 29.4245 12.7233 27.9424C12.7233 26.4602 12.053 25.0388 10.86 23.9907C9.66695 22.9427 8.04885 22.3539 6.36164 22.3539C4.67443 22.3539 3.05632 22.9427 1.86328 23.9907C0.670243 25.0388 0 26.4602 0 27.9424C0 29.4245 0.670243 30.846 1.86328 31.894C3.05632 32.9421 4.67443 33.5309 6.36164 33.5309ZM38.1698 50.2963C38.1698 51.7784 37.4996 53.1999 36.3065 54.2479C35.1135 55.296 33.4954 55.8848 31.8082 55.8848C30.121 55.8848 28.5029 55.296 27.3098 54.2479C26.1168 53.1999 25.4465 51.7784 25.4465 50.2963C25.4465 48.8141 26.1168 47.3927 27.3098 46.3446C28.5029 45.2966 30.121 44.7078 31.8082 44.7078C33.4954 44.7078 35.1135 45.2966 36.3065 46.3446C37.4996 47.3927 38.1698 48.8141 38.1698 50.2963ZM6.36164 55.8848C8.04885 55.8848 9.66695 55.296 10.86 54.2479C12.053 53.1999 12.7233 51.7784 12.7233 50.2963C12.7233 48.8141 12.053 47.3927 10.86 46.3446C9.66695 45.2966 8.04885 44.7078 6.36164 44.7078C4.67443 44.7078 3.05632 45.2966 1.86328 46.3446C0.670243 47.3927 0 48.8141 0 50.2963C0 51.7784 0.670243 53.1999 1.86328 54.2479C3.05632 55.296 4.67443 55.8848 6.36164 55.8848V55.8848Z" fill="white" fill-opacity="0.2" />
  </g>
</svg>