<svg width="170" height="202" viewBox="0 0 170 202" fill="none" xmlns="http://www.w3.org/2000/svg">
  <mask id="mask0" mask-type="alpha" maskUnits="userSpaceOnUse" x="0" y="0" width="170" height="202">
    <rect width="170" height="202" fill="#C4C4C4" />
  </mask>
  <g mask="url(#mask0)">
    <path d="M124.139 140.511C98.0202 145.12 70.228 131.644 57.0086 107.959L17.7765 122.092C39.4628 167.804 90.6432 192.621 138.612 180.686L124.139 140.511Z" fill="white" fill-opacity="0.1" />
    <path d="M49.7724 87.8708C44.2105 57.7283 61.1138 27.6287 90.2142 17.1455C122.669 5.45407 158.799 22.9736 170.771 56.2081C181.506 86.0076 169.812 118.633 143.755 133.444L158.228 173.618C205.896 150.728 228.731 94.0611 210.003 42.0751C190.053 -13.3056 129.823 -42.5113 75.7417 -23.0291C24.9754 -4.74106 -2.77351 49.5427 10.5403 102.004L49.7724 87.8708Z" fill="white" fill-opacity="0.1" />
  </g>
</svg>