<svg width="108" height="108" viewBox="0 0 108 108" fill="none" xmlns="http://www.w3.org/2000/svg">
<path d="M15.9541 54.1276C15.913 46.6212 18.0992 39.2758 22.2365 33.0206C26.3738 26.765 32.2763 21.8806 39.1976 18.9846C46.119 16.0888 53.7482 15.3115 61.1206 16.7511C68.4929 18.1907 75.2775 21.7828 80.616 27.0728C85.9545 32.3627 89.6075 39.1132 91.1128 46.4705C92.6181 53.8278 91.9082 61.4615 89.0728 68.4062C86.2375 75.3509 81.404 81.2948 75.1838 85.4862C68.9635 89.6775 61.6357 91.9281 54.1271 91.9533L54.0841 84.151C60.0492 84.1309 65.8706 82.343 70.812 79.0133C75.7537 75.6836 79.5935 70.9616 81.8459 65.4446C84.0983 59.9276 84.6623 53.8632 83.4664 48.0184C82.2706 42.1736 79.3687 36.8109 75.1276 32.6085C70.8864 28.4059 65.4968 25.5524 59.6401 24.4087C53.7831 23.2649 47.7224 23.8825 42.2239 26.183C36.7255 28.4836 32.0364 32.364 28.7497 37.3335C25.463 42.3029 23.7261 48.1382 23.7588 54.1014L15.9541 54.1276Z" fill="white" fill-opacity="0.6"/>
<path d="M16.4125 59.8064C17.6845 67.9087 21.5457 75.3868 27.4185 81.1221C33.2915 86.8571 40.86 90.541 48.9919 91.6221L49.9994 83.9284C43.5304 83.0686 37.5096 80.1382 32.8377 75.5756C28.1657 71.0133 25.0941 65.0646 24.0823 58.6192L16.4125 59.8064Z" fill="#183149" fill-opacity="0.2"/>
<path d="M40.917 69.3466C32.5771 62.1042 31.6874 49.4722 38.9299 41.1322C46.1723 32.7923 58.8043 31.9027 67.1443 39.1451C75.4842 46.3876 76.3738 59.0196 69.1314 67.3595C61.8889 75.6994 49.2569 76.5891 40.917 69.3466Z" fill="#183149"/>
</svg>
