<svg
  width="1440"
  height="787"
  viewBox="0 0 1440 787"
  fill="none"
  xmlns="http://www.w3.org/2000/svg"
>
  <path
    fill-rule="evenodd"
    clip-rule="evenodd"
    d="M1441 643.38L1441 -23.322H-36.0024V643.862C151.949 732.028 413.173 786.678 701.986 786.678C991.325 786.678 1252.97 731.829 1441 643.38Z"
    fill="#EF4F01"
  />
  <g style="mix-blend-mode: screen">
    <path
      d="M99.8333 605.027C103.767 605.027 107.54 603.655 110.322 601.211C113.104 598.767 114.667 595.453 114.667 591.997C114.667 588.541 113.104 585.227 110.322 582.783C107.54 580.339 103.767 578.966 99.8333 578.966C95.8993 578.966 92.1264 580.339 89.3446 582.783C86.5628 585.227 85 588.541 85 591.997C85 595.453 86.5628 598.767 89.3446 601.211C92.1264 603.655 95.8993 605.027 99.8333 605.027ZM159.167 605.027C163.101 605.027 166.874 603.655 169.655 601.211C172.437 598.767 174 595.453 174 591.997C174 588.541 172.437 585.227 169.655 582.783C166.874 580.339 163.101 578.966 159.167 578.966C155.233 578.966 151.46 580.339 148.678 582.783C145.896 585.227 144.333 588.541 144.333 591.997C144.333 595.453 145.896 598.767 148.678 601.211C151.46 603.655 155.233 605.027 159.167 605.027ZM174 644.119C174 647.575 172.437 650.889 169.655 653.333C166.874 655.777 163.101 657.15 159.167 657.15C155.233 657.15 151.46 655.777 148.678 653.333C145.896 650.889 144.333 647.575 144.333 644.119C144.333 640.663 145.896 637.349 148.678 634.905C151.46 632.461 155.233 631.089 159.167 631.089C163.101 631.089 166.874 632.461 169.655 634.905C172.437 637.349 174 640.663 174 644.119ZM99.8333 657.15C103.767 657.15 107.54 655.777 110.322 653.333C113.104 650.889 114.667 647.575 114.667 644.119C114.667 640.663 113.104 637.349 110.322 634.905C107.54 632.461 103.767 631.089 99.8333 631.089C95.8993 631.089 92.1264 632.461 89.3446 634.905C86.5628 637.349 85 640.663 85 644.119C85 647.575 86.5628 650.889 89.3446 653.333C92.1264 655.777 95.8993 657.15 99.8333 657.15ZM174 696.241C174 699.697 172.437 703.012 169.655 705.455C166.874 707.899 163.101 709.272 159.167 709.272C155.233 709.272 151.46 707.899 148.678 705.455C145.896 703.012 144.333 699.697 144.333 696.241C144.333 692.785 145.896 689.471 148.678 687.027C151.46 684.584 155.233 683.211 159.167 683.211C163.101 683.211 166.874 684.584 169.655 687.027C172.437 689.471 174 692.785 174 696.241ZM99.8333 709.272C103.767 709.272 107.54 707.899 110.322 705.455C113.104 703.012 114.667 699.697 114.667 696.241C114.667 692.785 113.104 689.471 110.322 687.027C107.54 684.584 103.767 683.211 99.8333 683.211C95.8993 683.211 92.1264 684.584 89.3446 687.027C86.5628 689.471 85 692.785 85 696.241C85 699.697 86.5628 703.012 89.3446 705.455C92.1264 707.899 95.8993 709.272 99.8333 709.272Z"
      fill="white"
      fill-opacity="0.2"
    />
  </g>
  <path
    d="M1157.28 348.005C1080.15 351.522 1004.43 305.036 974.384 235.721L856.03 260.704C902.942 393.15 1042.38 478.756 1185.25 462.814L1157.28 348.005Z"
    fill="white"
    fill-opacity="0.08"
  />
  <path
    d="M962.92 178.317C957.258 94.0181 1016.55 17.6454 1104.34 -0.885061C1202.25 -21.5515 1300.69 38.8797 1323.82 133.856C1344.56 219.015 1299.46 304.101 1218.98 335.514L1246.94 450.323C1392.72 404.343 1478.36 257.436 1442.18 108.873C1403.63 -49.3909 1239.53 -150.132 1076.38 -115.694C923.23 -83.3674 824.202 55.3197 844.565 203.299L962.92 178.317Z"
    fill="white"
    fill-opacity="0.08"
  />
</svg>
