<svg
  width="267"
  height="268"
  viewBox="0 0 267 268"
  fill="none"
  xmlns="http://www.w3.org/2000/svg"
>
  <path
    d="M38.3038 153.279L143.01 153.289C147.811 153.29 152.434 155.11 155.954 158.386C159.474 161.662 161.63 166.15 161.99 170.953L162.047 172.385V196.245C162.037 236.346 121.24 248.759 90.6566 248.759C60.6822 248.759 20.8941 236.843 19.314 198.613L19.2664 196.245V172.375C19.2664 162.312 27.0336 154.062 36.876 153.337L38.3038 153.279ZM164.141 153.289L228.678 153.279C238.711 153.279 246.935 161.071 247.658 170.943L247.715 172.375V191.471C247.706 227.362 215.066 239.211 190.603 239.211C180.532 239.211 169.1 237.158 159.106 232.288C166.264 223.753 170.909 212.887 171.499 199.214L171.566 196.245V172.385C171.566 165.682 169.195 159.591 165.34 154.721L164.141 153.279H228.678L164.141 153.289ZM90.6566 29.1567C97.5323 29.1573 104.341 30.5163 110.693 33.1562C117.045 35.7961 122.816 39.6651 127.678 44.5423C132.539 49.4195 136.395 55.2094 139.026 61.5815C141.657 67.9535 143.01 74.7829 143.01 81.6797C143.009 88.5765 141.654 95.4056 139.022 101.777C136.39 108.149 132.533 113.938 127.671 118.814C122.809 123.691 117.036 127.559 110.684 130.197C104.331 132.836 97.5228 134.194 90.6471 134.193C76.761 134.192 63.4441 128.658 53.6261 118.808C43.808 108.958 38.293 95.5989 38.2943 81.6702C38.2955 67.7415 43.813 54.3837 53.6328 44.5355C63.4527 34.6874 76.7705 29.1554 90.6566 29.1567ZM195.362 48.2525C200.987 48.2525 206.557 49.3638 211.754 51.5231C216.951 53.6823 221.673 56.8471 225.651 60.8368C229.628 64.8265 232.783 69.563 234.936 74.7759C237.089 79.9887 238.197 85.5758 238.197 91.2181C238.197 96.8604 237.089 102.447 234.936 107.66C232.783 112.873 229.628 117.61 225.651 121.599C221.673 125.589 216.951 128.754 211.754 130.913C206.557 133.072 200.987 134.184 195.362 134.184C184.002 134.184 173.107 129.657 165.074 121.599C157.041 113.542 152.528 102.613 152.528 91.2181C152.528 79.8229 157.041 68.8944 165.074 60.8368C173.107 52.7792 184.002 48.2525 195.362 48.2525Z"
    fill="black"
  />
</svg>